<svg width="350" height="42" viewBox="0 0 350 42" fill="none" xmlns="http://www.w3.org/2000/svg">
<g clip-path="url(#clip0_6_3)">
<path d="M52.7732 1.68177C55.0201 3.18758 56.8176 5.22043 58.1658 7.78032C59.5514 10.3402 60.5063 12.8436 61.0306 15.2906C61.5923 17.6999 61.8732 19.601 61.8732 20.9939C61.8732 23.3279 61.4987 26.0383 60.7497 29.1253C60.0382 32.2122 58.4841 35.0921 56.0874 37.7649C53.6907 40.4001 50.2267 41.7177 45.6955 41.7177C39.479 41.7177 35.0601 38.0849 32.4388 30.8193C31.2779 27.5442 30.6225 23.8926 30.4727 19.8645C30.4727 16.5517 31.1655 13.4083 32.5511 10.4343C33.9367 7.42269 35.7529 5.01339 37.9998 3.20641C40.2842 1.39943 42.6247 0.495937 45.0214 0.495937C47.1934 0.495937 48.8037 0.552405 49.8522 0.665342C50.9382 0.778277 51.9119 1.11709 52.7732 1.68177ZM45.4146 38.5554C49.3841 38.5554 52.3426 36.899 54.2899 33.5862C56.2372 30.2358 57.2108 26.0383 57.2108 20.9939C57.2108 17.9069 56.7427 15.0647 55.8065 12.4672C54.9078 9.832 53.6158 7.74268 51.9306 6.19922C50.2829 4.61811 48.373 3.82756 46.201 3.82756C46.0138 3.82756 45.5082 3.82756 44.6844 3.82756C43.8979 3.82756 43.2052 3.95931 42.606 4.22283C42.0068 4.48635 41.4638 4.88163 40.977 5.40866C39.7412 6.65096 38.6926 7.79915 37.8313 8.85322C37.0075 9.86964 36.1649 11.3943 35.3036 13.4271C34.4797 15.46 34.0678 17.8128 34.0678 20.4856C34.0678 23.6479 34.4422 26.603 35.1912 29.3511C35.9776 32.0616 37.2134 34.2827 38.8986 36.0144C40.5838 37.7084 42.7558 38.5554 45.4146 38.5554Z" fill="black"/>
<path d="M126.264 7.38505C126.264 8.13796 126.207 8.8344 126.095 9.47437C126.058 10.039 125.795 10.3214 125.309 10.3214C125.159 10.3214 124.953 10.2837 124.691 10.2085C124.429 10.1332 124.223 10.0767 124.073 10.039C123.511 9.92611 121.882 9.86964 119.186 9.86964L117.051 9.81318C116.564 9.77553 115.853 9.75671 114.917 9.75671C114.243 9.75671 113.737 9.77553 113.4 9.81318C112.277 9.88847 111.284 9.92611 110.423 9.92611L107.446 9.86964C107.146 9.86964 106.978 9.94493 106.94 10.0955C106.903 10.2085 106.884 10.5096 106.884 10.999C106.884 11.6766 106.865 12.2601 106.828 12.7495C106.753 14.2553 106.715 15.4788 106.715 16.4199V19.7516C106.715 20.5421 106.734 21.1444 106.772 21.5585C107.071 21.5962 107.577 21.615 108.288 21.615C108.925 21.6527 110.236 21.6715 112.22 21.6715C113.044 21.6715 114.243 21.6338 115.815 21.5585C117.014 21.4832 117.8 21.4456 118.175 21.4456C118.699 21.4456 119.223 21.4832 119.748 21.5585C120.272 21.5962 120.665 21.615 120.927 21.615C121.414 21.615 121.657 21.8409 121.657 22.2926C121.657 22.4432 121.639 22.6691 121.601 22.9702C121.564 23.2338 121.545 23.5914 121.545 24.0431L121.601 27.0359C121.601 27.3748 121.564 27.6195 121.489 27.77C121.414 27.883 121.283 27.9394 121.096 27.9394C120.983 27.9394 120.815 27.9206 120.59 27.883C120.403 27.8077 120.234 27.77 120.085 27.77C119.748 27.77 119.111 27.7512 118.175 27.7136C117.276 27.6759 116.04 27.6571 114.467 27.6571C112.782 27.6571 111.322 27.7324 110.086 27.883C108.85 28.0336 108.101 28.1088 107.839 28.1088C107.427 28.1088 107.184 28.09 107.109 28.0524C106.921 28.0524 106.809 28.0336 106.772 27.9959V33.6427C107.034 33.6427 107.24 33.6239 107.39 33.5862L108.962 33.5298L115.591 33.4733C116.939 33.4733 118.006 33.4921 118.793 33.5298L122.669 33.5862L125.028 33.5298C125.477 33.5298 125.777 33.6427 125.927 33.8686C126.076 34.0568 126.151 34.3392 126.151 34.7156L126.095 35.845L126.039 39.7977C126.039 40.4001 125.908 40.7765 125.646 40.9271C125.384 41.04 125.009 41.0965 124.522 41.0965C124.035 41.0589 123.642 41.04 123.343 41.04C121.732 41.04 120.347 41.0212 119.186 40.9836L113.456 40.9271C113.007 40.9271 110.76 40.9836 106.715 41.0965L104.581 41.153L104.244 41.2094C104.019 41.2094 103.888 41.153 103.851 41.04C103.813 40.8895 103.795 40.6259 103.795 40.2495C103.757 39.8354 103.738 39.1389 103.738 38.1602C103.738 37.859 103.72 37.539 103.682 37.2002C103.645 36.8238 103.626 36.3344 103.626 35.732V27.9959C103.626 27.243 103.645 26.5089 103.682 25.7936C103.757 25.0784 103.795 24.5514 103.795 24.2125C103.944 22.4809 104.019 20.8245 104.019 19.2433C104.019 17.2858 103.963 15.7423 103.851 14.613C103.776 13.333 103.738 12.166 103.738 11.1119C103.738 8.74028 103.795 5.97334 103.907 2.81113C103.907 2.32174 104.001 2.00175 104.188 1.85117C104.375 1.66294 104.637 1.56883 104.974 1.56883L105.817 1.6253C106.154 1.6253 106.697 1.66294 107.446 1.73824C108.195 1.77588 109.112 1.7947 110.198 1.7947C111.434 1.7947 112.894 1.70059 114.58 1.51236C116.602 1.36178 117.95 1.28649 118.624 1.28649C120.159 1.28649 121.564 1.34296 122.837 1.4559L124.859 1.51236C125.346 1.51236 125.664 1.6253 125.814 1.85117C125.964 2.07704 126.039 2.49114 126.039 3.09347C126.039 3.43228 126.076 4.01578 126.151 4.84398C126.226 5.82276 126.264 6.66978 126.264 7.38505Z" fill="black"/>
<path d="M145.047 1.28649C148.305 1.28649 150.721 1.92646 152.293 3.20641C153.866 4.48635 154.69 5.16397 154.765 5.23926C155.139 5.50278 155.327 5.76629 155.327 6.02981C155.327 6.18039 155.252 6.33097 155.102 6.48156C154.99 6.63214 154.765 6.95212 154.428 7.44152C154.091 7.93091 153.829 8.1756 153.642 8.1756C153.454 8.1756 153.211 8.08149 152.911 7.89326L152.518 7.55445C149.672 5.48395 147.238 4.4487 145.216 4.4487C142.632 4.4487 140.666 5.05103 139.318 6.25568C138.007 7.42269 137.351 8.90969 137.351 10.7167C137.351 12.2601 137.894 13.5777 138.98 14.6694C140.104 15.7611 141.564 16.7964 143.362 17.7752C143.886 18.0011 144.429 18.2081 144.991 18.3963C146.863 19.1116 148.492 19.8833 149.878 20.7115C151.301 21.5021 152.574 22.7255 153.698 24.3819C154.821 26.0007 155.383 28.0524 155.383 30.537C155.383 34.7909 153.941 37.7084 151.058 39.2895C148.174 40.833 144.953 41.6047 141.396 41.6047C139.336 41.6047 137.464 41.1342 135.779 40.193C134.131 39.2519 132.951 38.4237 132.24 37.7084C131.865 37.3696 131.772 37.0308 131.959 36.692C131.996 36.6167 132.146 36.3155 132.408 35.7885C132.708 35.2615 132.97 34.998 133.195 34.998H133.307C133.419 34.998 133.513 35.0356 133.588 35.1109C133.7 35.1485 133.813 35.2426 133.925 35.3932C134.075 35.5438 134.243 35.7132 134.43 35.9014C134.917 36.3908 135.872 36.9555 137.295 37.5955C138.718 38.1978 139.898 38.499 140.834 38.499C142.819 38.499 144.71 38.0849 146.508 37.2567C148.305 36.3908 149.204 34.5839 149.204 31.8357C149.204 30.6687 148.68 29.6523 147.631 28.7865C146.62 27.9206 145.028 26.9042 142.856 25.7372L140.441 24.3819C137.82 22.8761 135.76 21.2574 134.262 19.5257C132.801 17.794 132.071 15.5165 132.071 12.693C132.071 10.359 132.727 8.32618 134.037 6.59449C135.385 4.86281 137.052 3.54522 139.037 2.64172C141.059 1.73823 143.062 1.28649 145.047 1.28649Z" fill="black"/>
<path d="M185.48 17.9822C186.953 19.2873 187.927 20.8433 188.401 22.6503C188.875 24.4321 189.113 26.4022 189.113 28.5606C189.113 29.6899 188.925 30.9573 188.551 32.3628C188.176 33.7682 187.652 35.0732 186.978 36.2779C186.329 37.4825 185.567 38.3735 184.694 38.9507C183.495 39.7287 182.01 40.2809 180.237 40.6071C178.465 40.9083 177.067 41.0589 176.043 41.0589H172.223C171.949 41.0589 171.774 40.9961 171.699 40.8706C171.624 40.7451 171.624 40.6071 171.699 40.4565C171.724 40.3812 171.737 40.2809 171.737 40.1554C171.737 40.055 171.724 39.9295 171.699 39.7789C171.699 39.6032 171.699 39.3648 171.699 39.0637C171.699 38.2355 171.687 37.4198 171.662 36.6167L171.587 29.8029L171.624 22.2362C171.624 21.5836 171.612 20.9562 171.587 20.3539C171.562 19.7265 171.537 19.1869 171.512 18.7351L171.437 16.3635C171.462 15.7862 171.499 15.3847 171.549 15.1588C171.599 14.933 171.699 14.82 171.849 14.82H171.961C172.061 14.82 172.173 14.8451 172.298 14.8953C172.423 14.9204 172.535 14.933 172.635 14.933C172.835 14.933 173.072 14.9204 173.347 14.8953C173.646 14.8702 173.946 14.8577 174.246 14.8577L175.706 14.8953C177.104 14.8953 178.365 14.958 179.488 15.0835C179.588 15.0835 179.913 15.1086 180.462 15.1588C181.036 15.209 181.76 15.4725 182.634 15.9494C183.533 16.4262 184.481 17.1038 185.48 17.9822ZM177.878 39.6283C179.601 39.7287 181.174 39.415 182.597 38.6872C183.97 37.9845 185.106 36.8175 186.004 35.1862C186.903 33.5549 187.352 31.3463 187.352 28.5606C187.352 25.7999 186.903 23.5914 186.004 21.935C185.131 20.2535 184.02 18.9987 182.671 18.1705C181.298 17.3423 179.738 16.9156 177.99 16.8905L177.841 20.3162C177.766 21.546 177.728 23.24 177.728 25.3984C177.728 25.5991 177.766 26.716 177.841 28.7488C177.915 29.6021 177.953 30.4052 177.953 31.1581L177.915 36.0144C177.891 36.7673 177.878 37.9719 177.878 39.6283Z" fill="black"/>
<path d="M211.817 40.3436C211.942 40.5946 212.004 40.7577 212.004 40.833C212.004 41.0338 211.78 41.1342 211.33 41.1342H208.634C208.534 41.1342 208.434 41.0463 208.334 40.8706C208.235 40.695 208.147 40.5193 208.072 40.3436C207.997 40.1679 207.935 40.0173 207.885 39.8919C207.76 39.6409 207.523 39.0637 207.173 38.1602C206.849 37.2567 206.599 36.5414 206.425 36.0144C206.35 35.7634 206.2 35.3995 205.975 34.9227C205.75 34.4207 205.588 34.0694 205.488 33.8686C205.388 33.5674 205.289 33.3667 205.189 33.2663C205.114 33.1659 204.989 33.1157 204.814 33.1157C204.639 33.1157 204.415 33.1282 204.14 33.1533C203.891 33.1784 203.616 33.2035 203.316 33.2286C203.117 33.2788 202.492 33.3039 201.444 33.3039C200.72 33.3039 200.008 33.329 199.309 33.3792C199.085 33.4043 198.685 33.4168 198.111 33.4168L196.126 33.3792C196.001 33.3792 195.902 33.4294 195.827 33.5298C195.777 33.6302 195.739 33.7557 195.714 33.9062C195.689 34.0317 195.664 34.1321 195.639 34.2074L195.415 35.1485C195.34 35.4999 195.24 35.914 195.115 36.3908C195.015 36.8426 194.928 37.2692 194.853 37.6708L194.441 39.2895L194.141 40.3812C194.067 40.6824 193.992 40.8832 193.917 40.9836C193.867 41.0589 193.779 41.0965 193.655 41.0965H191.445C191.32 41.0965 191.258 41.0463 191.258 40.9459C191.258 40.8957 191.308 40.7201 191.408 40.4189C191.607 39.942 191.782 39.4652 191.932 38.9884C192.856 35.8763 193.405 33.8435 193.58 32.8898C193.804 31.635 194.266 30.0162 194.965 28.0336C195.19 27.1803 195.402 26.4022 195.602 25.6995C195.677 25.3482 195.789 24.9215 195.939 24.4196C196.413 22.6628 196.888 21.019 197.362 19.488L198.298 16.4764C198.498 15.6984 198.748 14.8953 199.047 14.0671C199.197 13.6907 199.372 13.6028 199.571 13.8036C199.721 13.904 199.834 14.0797 199.908 14.3306C199.983 14.5816 200.033 14.7573 200.058 14.8577C200.133 15.1588 200.795 16.6646 202.043 19.3751C202.542 20.4041 203.079 21.7468 203.653 23.4032C203.903 24.131 204.59 25.6995 205.713 28.1088C206.287 29.2884 206.662 30.104 206.836 30.5558C207.236 31.4342 208.309 33.5674 210.057 36.9555L210.506 37.8966C211.081 39.1766 211.517 39.9922 211.817 40.3436ZM202.006 27.9206C202.18 27.8955 202.33 27.883 202.455 27.883C202.58 27.883 202.68 27.8704 202.755 27.8453C202.829 27.8202 202.867 27.7826 202.867 27.7324C202.867 27.6822 202.829 27.5818 202.755 27.4312C202.63 27.2054 202.343 26.5779 201.893 25.549C201.444 24.4949 201.132 23.7043 200.957 23.1773C200.707 22.575 200.508 22.073 200.358 21.6715C200.233 21.2699 200.133 20.9939 200.058 20.8433C200.008 20.7178 199.946 20.5923 199.871 20.4668C199.821 20.3413 199.771 20.241 199.721 20.1657C199.671 20.0904 199.621 20.0527 199.571 20.0527C199.497 20.0527 199.409 20.241 199.309 20.6174C199.234 20.9939 199.172 21.2825 199.122 21.4833C198.673 22.9389 198.348 24.0431 198.148 24.796C198.049 25.1725 197.899 25.6368 197.699 26.1889C197.524 26.716 197.399 27.0799 197.325 27.2806C197.25 27.5316 197.212 27.7324 197.212 27.883C197.212 28.0336 197.325 28.1088 197.549 28.1088C198.074 28.1088 198.872 28.0963 199.946 28.0712C201.044 28.021 201.731 27.9708 202.006 27.9206Z" fill="black"/>
<path d="M230.252 2.02058C231.076 2.02058 232.387 1.98293 234.185 1.90764L237.218 1.7947L243.341 1.85117L246.149 1.90764C246.711 1.94529 247.479 1.96411 248.452 1.96411C248.864 1.96411 249.126 2.02058 249.239 2.13351C249.389 2.24645 249.463 2.43468 249.463 2.69819L249.407 3.65815L249.463 10.2649V13.5401C249.463 13.8412 249.407 14.0483 249.295 14.1612C249.22 14.2365 248.995 14.2742 248.621 14.2742C248.022 14.2742 247.179 14.2177 246.093 14.1048C245.531 14.0671 244.97 14.0295 244.408 13.9918C243.846 13.9542 243.359 13.9353 242.947 13.9353H236.993C236.319 13.9353 235.533 13.973 234.634 14.0483L233.454 14.1612C233.417 14.3871 233.398 14.7259 233.398 15.1776V17.0411C233.398 17.4928 233.361 18.0199 233.286 18.6222L233.173 19.3563H234.409L236.656 19.2998H240.701C241.637 19.2998 242.742 19.2622 244.015 19.1869C244.988 19.1116 245.625 19.0739 245.925 19.0739C246.374 19.0739 246.674 19.1304 246.823 19.2433C246.973 19.3563 247.048 19.5257 247.048 19.7516C247.048 20.241 246.954 20.7868 246.767 21.3891C246.73 21.6527 246.655 21.8221 246.543 21.8974C246.43 21.9726 246.243 22.0103 245.981 22.0103L243.734 21.9538L238.51 21.8409H235.533C234.596 21.8409 233.866 21.8597 233.342 21.8974V27.3748C233.342 30.0852 233.286 32.2875 233.173 33.9815C233.099 34.9603 233.061 35.9203 233.061 36.8614L233.117 40.193C233.117 40.6071 233.024 40.8518 232.836 40.9271C232.649 41.0024 232.312 41.04 231.825 41.04H227.949C227.612 41.0024 227.406 40.8895 227.332 40.7012C227.257 40.513 227.219 40.2495 227.219 39.9107C227.219 39.5719 227.219 39.2895 227.219 39.0637C227.144 38.4613 227.107 37.5767 227.107 36.4097L227.163 31.6663L227.275 25.7372L227.388 22.1232L227.332 20.4856C227.219 19.6198 227.163 18.5093 227.163 17.154C227.163 16.2882 227.2 15.2906 227.275 14.1612L227.332 12.1848V7.1027C227.332 6.72625 227.369 6.04863 227.444 5.06986L227.556 3.037V2.81113C227.556 2.43468 227.612 2.18998 227.725 2.07704C227.875 1.96411 228.08 1.90764 228.343 1.90764C228.605 1.90764 228.886 1.92646 229.185 1.96411C229.522 2.00175 229.878 2.02058 230.252 2.02058Z" fill="black"/>
<path d="M276.755 4.16636C276.755 5.03221 276.68 5.46513 276.53 5.46513C276.305 5.46513 276.043 5.44631 275.743 5.40866C275.481 5.33337 275.144 5.29573 274.732 5.29573H265.745L258.779 5.23926C258.555 5.23926 257.712 5.29573 256.252 5.40866L254.96 5.5216L254.847 7.04624C254.81 7.61092 254.791 8.49559 254.791 9.70024C254.791 10.3026 254.829 11.0931 254.903 12.0719C254.978 12.9754 255.016 13.6342 255.016 14.0483V16.307C255.016 16.9093 255.035 17.3799 255.072 17.7187C255.409 17.7564 255.915 17.7752 256.589 17.7752H258.836C259.06 17.7752 259.51 17.7375 260.184 17.6622C261.157 17.587 262 17.5493 262.711 17.5493C263.011 17.5493 264.06 17.6058 265.857 17.7187L267.093 17.7752C267.392 17.7752 267.823 17.7564 268.385 17.7187C268.947 17.6434 269.49 17.6058 270.014 17.6058L271.868 17.6622C272.841 17.7375 273.515 17.7752 273.89 17.7752C274.302 17.7752 274.583 17.7564 274.732 17.7187L275.069 17.6622C275.332 17.6622 275.519 17.7564 275.631 17.9446C275.743 18.0952 275.781 18.2457 275.743 18.3963C275.706 18.6598 275.687 18.9987 275.687 19.4128C275.687 19.7892 275.669 20.128 275.631 20.4292C275.594 20.7303 275.537 20.9186 275.463 20.9939C275.388 21.0315 275.163 21.0503 274.789 21.0503L272.542 20.8245C269.733 20.5609 267.898 20.4292 267.037 20.4292C263.854 20.4292 261.513 20.4856 260.015 20.5986C259.416 20.6739 258.761 20.7115 258.049 20.7115C257.338 20.7115 256.888 20.7115 256.701 20.7115C255.989 20.7115 255.465 20.6927 255.128 20.6551L254.96 21.5585C254.885 22.2362 254.847 22.8385 254.847 23.3655C254.847 23.8173 254.885 24.3443 254.96 24.9466C255.035 25.549 255.072 26.076 255.072 26.5277L255.128 33.2474L255.072 36.0708C255.035 36.4097 255.016 36.8802 255.016 37.4825C255.503 37.5202 256.214 37.539 257.15 37.539C257.937 37.5767 259.154 37.5955 260.802 37.5955L263.835 37.6519C264.471 37.6896 265.445 37.7084 266.756 37.7084C267.542 37.7084 268.572 37.6708 269.845 37.5955L272.205 37.539C273.103 37.539 273.852 37.5578 274.451 37.5955C275.051 37.6331 275.5 37.6519 275.8 37.6519C276.099 37.6519 276.268 37.7084 276.305 37.8214C276.38 37.9343 276.418 38.179 276.418 38.5554C276.418 38.819 276.399 39.1013 276.361 39.4025C276.324 39.666 276.305 39.9671 276.305 40.306C276.305 40.5695 276.212 40.7577 276.024 40.8706C275.837 40.9459 275.537 40.9836 275.126 40.9836C274.714 40.9836 274.377 40.9647 274.114 40.9271C273.103 40.8142 271.062 40.7577 267.992 40.7577C266.119 40.7577 264.771 40.7765 263.947 40.8142C263.311 40.8518 262.262 40.8706 260.802 40.8706L255.578 40.8142C254.978 40.7765 254.267 40.7577 253.443 40.7577C252.919 40.7577 252.563 40.7012 252.376 40.5883C252.226 40.4377 252.151 40.2118 252.151 39.9107L252.207 39.0072C252.245 38.8566 252.263 38.6872 252.263 38.499C252.263 38.386 252.245 38.1225 252.207 37.7084C252.17 37.2567 252.151 36.4473 252.151 35.2803C252.151 34.1509 252.114 32.3063 252.039 29.7464C251.926 27.6383 251.87 25.6054 251.87 23.6479C251.87 22.8197 251.964 20.4292 252.151 16.4764C252.188 15.6859 252.226 14.8953 252.263 14.1048C252.301 13.3142 252.319 12.5989 252.319 11.959C252.319 7.5921 252.263 4.71222 252.151 3.31934C252.039 2.41585 252.582 1.96411 253.78 1.96411C254.08 1.96411 254.566 2.00175 255.24 2.07704C255.84 2.15234 256.289 2.18998 256.589 2.18998L260.128 2.07704C262.674 1.92646 264.64 1.85117 266.026 1.85117C267.636 1.85117 269.901 1.88882 272.822 1.96411C273.759 2.00175 274.751 2.02058 275.8 2.02058C276.249 2.02058 276.53 2.13351 276.642 2.35938C276.755 2.58526 276.792 2.82995 276.755 3.09347C276.755 3.31934 276.755 3.46992 276.755 3.54522V4.16636Z" fill="black"/>
<path d="M284.885 3.37581C284.773 4.20401 284.679 6.33098 284.604 9.75671C284.604 10.8108 284.529 13.4836 284.38 17.7752C284.23 21.9162 284.155 24.4384 284.155 25.3419C284.155 27.5253 284.192 30.2923 284.267 33.6427C284.342 36.9555 284.417 38.9319 284.492 39.5719C284.529 39.7977 284.548 40.0613 284.548 40.3624C284.548 40.6259 284.492 40.8142 284.38 40.9271C284.305 41.04 284.174 41.153 283.986 41.2659C283.762 41.4165 283.181 41.4918 282.245 41.4918C282.095 41.4918 281.852 41.4918 281.515 41.4918C281.215 41.4918 281.028 41.4541 280.953 41.3789C280.878 41.3036 280.841 41.153 280.841 40.9271L280.897 39.1201L281.009 31.7228L281.122 19.8645C281.122 18.7351 281.196 16.1752 281.346 12.1848C281.384 11.2437 281.44 9.71906 281.515 7.61092C281.59 5.46513 281.59 4.20401 281.515 3.82756L281.459 2.64172C281.459 1.66294 281.758 1.17356 282.357 1.17356L284.436 1.23002C284.81 1.23002 284.997 1.49354 284.997 2.02058C284.997 2.2088 284.979 2.43468 284.941 2.69819C284.904 2.92407 284.885 3.14994 284.885 3.37581Z" fill="black"/>
<path d="M315.629 39.5154C316.154 40.3436 316.416 40.8895 316.416 41.153C316.416 41.3036 316.322 41.3977 316.135 41.4353C315.948 41.473 315.779 41.4918 315.629 41.4918C315.517 41.4918 315.423 41.4918 315.349 41.4918L309.001 41.6612C308.701 41.6612 308.458 41.5294 308.271 41.2659C308.121 41.0024 307.896 40.5318 307.597 39.8542C307.41 39.2895 307.073 38.5366 306.586 37.5955C305.837 36.2403 304.545 33.6992 302.71 29.9723L299.845 24.3819L300.013 27.3748L300.294 31.6663C300.519 36.7108 300.706 39.4966 300.856 40.0236C300.894 40.1742 300.912 40.3624 300.912 40.5883C300.912 41.2659 300.556 41.6047 299.845 41.6047C299.62 41.6047 299.433 41.5859 299.283 41.5483C298.684 41.473 297.224 41.5483 294.902 41.7741C293.329 41.9247 292.374 42 292.037 42C291.55 42 291.213 41.9059 291.026 41.7177C290.876 41.5294 290.801 41.2094 290.801 40.7577L290.857 39.4589L290.745 36.1838C290.52 32.2687 290.408 28.8618 290.408 25.9631C290.408 24.4572 290.464 23.422 290.577 22.8573C290.764 21.9162 290.857 19.2622 290.857 14.8953C290.857 10.3402 290.782 6.89566 290.633 4.56164C290.595 4.26048 290.577 3.84638 290.577 3.31934C290.577 2.71702 290.633 2.28409 290.745 2.02058C290.857 1.75706 290.97 1.6253 291.082 1.6253C291.232 1.58765 291.475 1.56883 291.812 1.56883L293.048 1.4559C295.632 1.15473 297.692 1.00415 299.227 1.00415C303.421 1.00415 306.567 2.09587 308.664 4.2793C310.799 6.42509 311.866 9.22967 311.866 12.693C311.866 15.4412 310.986 18.0763 309.226 20.5986C308.477 21.6903 307.616 22.6691 306.642 23.5349L310.574 30.7064C313.457 35.9014 315.143 38.8378 315.629 39.5154ZM299.508 16.8717C300.07 16.8717 300.575 16.7588 301.025 16.5329C302.073 16.0435 302.597 15.0459 302.597 13.5401C302.597 12.4484 302.429 11.639 302.092 11.1119C301.755 10.5849 301.324 10.3214 300.8 10.3214C300.388 10.3214 300.032 10.472 299.733 10.7731C299.695 10.8108 299.695 11.0743 299.733 11.5637C299.77 12.0531 299.789 12.5425 299.789 13.0319C299.789 13.446 299.77 13.7471 299.733 13.9353C299.583 14.5753 299.508 15.2341 299.508 15.9117L299.452 16.4199L299.508 16.8717Z" fill="black"/>
<path d="M349.719 39.9671C349.906 40.3436 350 40.5883 350 40.7012C350 41.0024 349.663 41.153 348.989 41.153H344.944C344.795 41.153 344.645 41.0212 344.495 40.7577C344.345 40.4942 344.214 40.2307 344.102 39.9671C343.99 39.7036 343.896 39.4778 343.821 39.2895C343.634 38.9131 343.278 38.0472 342.754 36.692C342.267 35.3368 341.892 34.2639 341.63 33.4733C341.518 33.0969 341.293 32.551 340.956 31.8357C340.619 31.0828 340.376 30.5558 340.226 30.2546C340.076 29.8029 339.926 29.5017 339.777 29.3511C339.664 29.2006 339.477 29.1253 339.215 29.1253C338.953 29.1253 338.616 29.1441 338.204 29.1817C337.829 29.2194 337.417 29.257 336.968 29.2947C336.668 29.37 335.732 29.4076 334.159 29.4076C333.073 29.4076 332.006 29.4453 330.958 29.5205C330.621 29.5582 330.021 29.577 329.16 29.577L326.183 29.5205C325.996 29.5205 325.846 29.5958 325.733 29.7464C325.659 29.897 325.602 30.0852 325.565 30.3111C325.528 30.4993 325.49 30.6499 325.453 30.7628L325.116 32.1745C325.003 32.7016 324.853 33.3227 324.666 34.038C324.516 34.7156 324.385 35.3556 324.273 35.9579L323.655 38.386L323.206 40.0236C323.093 40.4754 322.981 40.7765 322.869 40.9271C322.794 41.04 322.663 41.0965 322.475 41.0965H319.161C318.974 41.0965 318.88 41.0212 318.88 40.8706C318.88 40.7953 318.955 40.5318 319.105 40.0801C319.405 39.3648 319.667 38.6496 319.892 37.9343C321.277 33.2663 322.101 30.217 322.363 28.7865C322.7 26.9042 323.393 24.4761 324.442 21.5021C324.779 20.2221 325.097 19.0551 325.396 18.0011C325.509 17.474 325.677 16.834 325.902 16.0811C326.614 13.446 327.325 10.9802 328.037 8.68381L329.441 4.16636C329.74 2.99936 330.115 1.7947 330.564 0.552404C330.789 -0.0122762 331.051 -0.144035 331.351 0.157129C331.575 0.307711 331.744 0.571229 331.856 0.947683C331.969 1.32414 332.044 1.58765 332.081 1.73824C332.193 2.18998 333.186 4.4487 335.058 8.51441C335.807 10.0579 336.612 12.0719 337.474 14.5565C337.848 15.6482 338.878 18.0011 340.563 21.615C341.424 23.3843 341.986 24.6078 342.248 25.2854C342.847 26.603 344.458 29.8029 347.079 34.885L347.753 36.2967C348.614 38.2166 349.27 39.4401 349.719 39.9671ZM335.002 21.3327C335.264 21.295 335.489 21.2762 335.676 21.2762C335.863 21.2762 336.013 21.2574 336.125 21.2197C336.238 21.1821 336.294 21.1256 336.294 21.0503C336.294 20.975 336.238 20.8245 336.125 20.5986C335.938 20.2598 335.508 19.3186 334.833 17.7752C334.159 16.1941 333.691 15.0082 333.429 14.2177C333.055 13.3142 332.755 12.5613 332.53 11.959C332.343 11.3566 332.193 10.9425 332.081 10.7167C332.006 10.5284 331.912 10.3402 331.8 10.152C331.725 9.96376 331.65 9.81317 331.575 9.70024C331.501 9.5873 331.426 9.53084 331.351 9.53084C331.238 9.53084 331.107 9.81318 330.958 10.3779C330.845 10.9425 330.752 11.3755 330.677 11.6766C330.003 13.8601 329.516 15.5165 329.216 16.6458C329.066 17.2105 328.842 17.9069 328.542 18.7351C328.28 19.5257 328.093 20.0715 327.98 20.3727C327.868 20.7492 327.812 21.0503 327.812 21.2762C327.812 21.5021 327.98 21.615 328.317 21.615C329.104 21.615 330.302 21.5962 331.912 21.5585C333.56 21.4832 334.59 21.408 335.002 21.3327Z" fill="black"/>
<path d="M13.2567 33.6992C13.5189 32.9086 13.9121 31.7793 14.4363 30.3111C14.9981 28.8053 15.4474 27.6759 15.7845 26.923C16.159 26.2454 16.7581 24.6831 17.582 22.2362C18.4059 19.7516 19.0799 17.6811 19.6042 16.0247L21.9635 10.152C22.7499 8.30736 23.218 7.15918 23.3678 6.70743C23.7048 5.91687 24.0606 4.88163 24.435 3.60168L24.9968 2.02058C25.0717 1.71941 25.1653 1.53119 25.2776 1.4559C25.4274 1.3806 25.6334 1.39943 25.8955 1.51236C26.1202 1.58765 26.3824 1.6253 26.6819 1.6253H27.2998C27.5245 1.6253 27.6369 1.68177 27.6369 1.7947C27.6369 1.87 27.562 2.05822 27.4122 2.35938C26.6632 4.35459 26.0266 5.80394 25.5023 6.70743C25.1278 7.38505 24.2291 9.79435 22.806 13.9353C21.383 18.0387 20.4655 20.7492 20.0536 22.0668C20.0161 22.142 19.1548 24.5514 17.4697 29.2947C16.4585 32.1557 15.8407 33.8874 15.616 34.4897C15.204 35.5062 14.7547 36.692 14.2678 38.0472C13.8184 39.3648 13.5563 40.0989 13.4814 40.2495C13.4065 40.5506 13.3129 40.7389 13.2005 40.8142C13.1256 40.8895 12.9759 40.9271 12.7512 40.9271C12.5639 40.9271 12.4329 40.9083 12.358 40.8706C12.2831 40.7953 12.2269 40.7201 12.1894 40.6448C12.1894 40.5695 12.1707 40.513 12.1333 40.4754L11.2345 37.6519C10.186 34.2262 9.53061 32.1557 9.26847 31.4405L5.44873 20.5986C5.48618 20.6739 4.99935 19.1116 3.98825 15.9117C3.35163 13.653 2.75245 11.6954 2.19073 10.039C2.00349 9.62495 1.59155 8.1756 0.954933 5.691L0.22469 2.81113C0.0748967 2.39703 0 2.05822 0 1.7947C0 1.64412 0.0374484 1.55001 0.112345 1.51236C0.187242 1.47472 0.262138 1.4559 0.337035 1.4559C0.411932 1.41825 0.468104 1.39943 0.505553 1.39943H2.64011C2.97714 1.39943 3.20183 1.4559 3.31418 1.56883C3.42652 1.68177 3.50142 1.83235 3.53887 2.02058C3.57632 2.17116 3.61377 2.28409 3.65121 2.35938C3.8759 2.88642 4.23166 4.24165 4.71849 6.42509C5.05553 7.81797 5.74832 10.1332 6.79688 13.3707C6.98412 13.973 7.33988 15.1212 7.86415 16.8152C8.42588 18.5093 8.80036 19.7516 8.9876 20.5421C9.47443 22.5373 10.1485 24.8337 11.0098 27.4312L11.6277 29.1817C12.0771 30.6123 12.4703 31.7793 12.8073 32.6828C13.0695 33.2851 13.2193 33.6239 13.2567 33.6992Z" fill="black"/>
<path d="M71.404 1.85117C69.9061 1.92646 68.8763 1.96411 68.3146 1.96411H67.6405C67.3409 1.92646 67.0788 1.96411 66.8541 2.07704C66.6668 2.15234 66.5919 2.37821 66.6294 2.75466C66.7417 3.80873 66.7979 4.54282 66.7979 4.95692C66.7979 5.03221 66.7792 5.12632 66.7417 5.23926C66.7417 5.35219 66.7792 5.44631 66.8541 5.5216C66.929 5.59689 67.1162 5.65336 67.4158 5.691H69.775C72.0968 5.691 73.4263 5.72865 73.7633 5.80394C73.9131 5.84159 74.2501 5.86041 74.7744 5.86041L76.6281 5.80394C77.0026 5.76629 77.5269 5.74747 78.2009 5.74747L84.1552 5.80394L85.2787 5.91688C85.391 5.95452 85.5595 5.97334 85.7842 5.97334L84.7731 8.1756C83.9867 9.79435 83.3126 11.0178 82.7509 11.846L82.0768 12.7495C81.7398 13.2389 80.8785 14.4059 79.4929 16.2505C78.1073 18.0575 77.1898 19.3751 76.7404 20.2033C76.2911 20.9939 75.1302 22.6503 73.2577 25.1725C71.4228 27.6571 69.9997 29.577 68.9886 30.9322L68.0899 31.9487C67.603 32.4757 67.2286 32.9275 66.9664 33.3039C66.7043 33.6804 66.5732 34.0192 66.5732 34.3203C66.5732 35.0732 66.517 35.9956 66.4047 37.0873L66.2923 39.2895C66.2923 39.4025 66.2736 39.6283 66.2362 39.9671C66.2362 40.2683 66.3298 40.5506 66.517 40.8142C66.7043 41.04 67.2098 41.153 68.0337 41.153H81.796C82.882 41.153 83.7807 41.1718 84.4923 41.2094L88.9299 41.2659C90.5776 41.2659 91.6636 41.2283 92.1879 41.153C93.4237 40.9648 94.4535 40.8706 95.2774 40.8706L96.4008 40.7577C96.7753 40.7201 97 40.6636 97.0749 40.5883C97.1498 40.513 97.1872 40.2871 97.1872 39.9107V39.5719L97.2996 35.4497C97.2996 35.3368 97.2809 35.1297 97.2434 34.8285C97.2434 34.5274 97.1872 34.2639 97.0749 34.038C96.9626 33.8121 96.6817 33.6992 96.2323 33.6992L92.7496 33.8121C89.9035 33.9627 87.9562 34.038 86.9077 34.038C85.597 34.038 84.6233 34.0568 83.9867 34.0945L80.7849 34.1509C79.2495 34.1509 77.9013 34.0756 76.7404 33.9251C76.2536 33.8874 75.4859 33.7933 74.4374 33.6427L79.7738 26.3019C81.6462 23.8173 83.9305 20.6551 86.6268 16.8152C87.6005 15.46 90.1844 11.7331 94.3786 5.63454C94.7531 5.1075 94.9216 4.50517 94.8842 3.82756V2.69819V2.41585C94.8842 2.26527 94.8467 2.13351 94.7718 2.02058C94.6969 1.86999 94.491 1.7947 94.1539 1.7947L93.7607 1.85117C93.2364 1.92646 91.364 1.96411 88.1435 1.96411H84.8293L81.3466 1.85117L75.3923 1.73824C74.531 1.73824 73.2016 1.77588 71.404 1.85117Z" fill="black"/>
</g>
<defs>
<clipPath id="clip0_6_3">
<rect width="350" height="42" fill="white"/>
</clipPath>
</defs>
</svg>
