<svg width="764" height="91" viewBox="0 0 764 91" fill="none" xmlns="http://www.w3.org/2000/svg">
<g clip-path="url(#clip0_6_3)">
<rect width="764" height="91" fill="white"/>
<path d="M28.9375 73.0149C29.5097 71.302 30.368 68.8551 31.5125 65.674C32.7386 62.4114 33.7196 59.9645 34.4553 58.3332C35.2727 56.865 36.5806 53.4801 38.379 48.1783C40.1774 42.7951 41.6488 38.309 42.7932 34.7201L47.9431 21.996C49.6597 17.9993 50.6815 15.5115 51.0085 14.5328C51.7442 12.8199 52.5208 10.5769 53.3382 7.80365L54.5644 4.37792C54.7279 3.72539 54.9322 3.31757 55.1775 3.15444C55.5044 2.99131 55.954 3.03209 56.5262 3.27679C57.0167 3.43991 57.5889 3.52148 58.2429 3.52148C58.9786 3.52148 59.4282 3.52148 59.5917 3.52148C60.0821 3.52148 60.3274 3.64383 60.3274 3.88852C60.3274 4.05166 60.1639 4.45948 59.8369 5.112C58.202 9.43495 56.8124 12.5752 55.6679 14.5328C54.8505 16.0009 52.8886 21.2211 49.7823 30.1932C46.6761 39.0838 44.6733 44.9565 43.7741 47.8113C43.6924 47.9744 41.8123 53.1946 38.1338 63.4718C35.9267 69.6707 34.5779 73.4227 34.0874 74.7278C33.1882 76.93 32.2073 79.4993 31.1446 82.4357C30.1637 85.2904 29.5915 86.881 29.428 87.2072C29.2645 87.8597 29.0601 88.2676 28.8149 88.4307C28.6514 88.5938 28.3244 88.6754 27.834 88.6754C27.4252 88.6754 27.1391 88.6346 26.9757 88.553C26.8122 88.3899 26.6895 88.2268 26.6078 88.0637C26.6078 87.9005 26.5669 87.7782 26.4852 87.6966L24.5233 81.5792C22.2345 74.1568 20.8039 69.6707 20.2317 68.121L11.8938 44.6303C11.9756 44.7934 10.9129 41.4084 8.70578 34.4754C7.31612 29.5815 6.00821 25.3401 4.78205 21.7513C4.37333 20.8541 3.47414 17.7138 2.08448 12.3305L0.490466 6.09078C0.163489 5.19357 0 4.45948 0 3.88852C0 3.56226 0.0817444 3.35835 0.245233 3.27679C0.408722 3.19522 0.572211 3.15444 0.735699 3.15444C0.899188 3.07288 1.0218 3.03209 1.10355 3.03209H5.76298C6.49868 3.03209 6.98915 3.15444 7.23438 3.39913C7.47961 3.64383 7.6431 3.97009 7.72485 4.37792C7.80659 4.70418 7.88833 4.94887 7.97008 5.112C8.46055 6.25391 9.23712 9.19025 10.2998 13.921C11.0355 16.9389 12.5478 21.9552 14.8366 28.9698C15.2453 30.2748 16.0219 32.7626 17.1663 36.433C18.3925 40.1034 19.2099 42.795 19.6187 44.5079C20.6813 48.8309 22.1527 53.8063 24.0329 59.4343L25.3816 63.2271C26.3626 66.3266 27.2209 68.8551 27.9566 70.8126C28.5288 72.1177 28.8558 72.8518 28.9375 73.0149Z" fill="black"/>
<path d="M115.196 3.64383C120.101 6.90643 124.025 11.3109 126.968 16.8574C129.992 22.4038 132.077 27.8279 133.221 33.1296C134.447 38.3498 135.06 42.4688 135.06 45.4867C135.06 50.5437 134.243 56.4164 132.608 63.1047C131.055 69.7931 127.662 76.0328 122.431 81.8239C117.199 87.5335 109.638 90.3883 99.7467 90.3883C86.1771 90.3883 76.5313 82.5172 70.8092 66.7752C68.2751 59.679 66.8446 51.7672 66.5176 43.0397C66.5176 35.862 68.0299 29.0513 71.0544 22.6077C74.0789 16.0825 78.0435 10.8623 82.9482 6.94722C87.9346 3.03209 93.0436 1.07453 98.2753 1.07453C103.016 1.07453 106.531 1.19688 108.82 1.44158C111.191 1.68627 113.316 2.42035 115.196 3.64383ZM99.1336 83.5368C107.799 83.5368 114.256 79.9479 118.507 72.7702C122.758 65.5109 124.883 56.4164 124.883 45.4867C124.883 38.7984 123.861 32.6402 121.818 27.0122C119.856 21.3027 117.036 16.7758 113.357 13.4316C109.76 10.0059 105.591 8.29304 100.85 8.29304C100.442 8.29304 99.338 8.29304 97.5396 8.29304C95.8229 8.29304 94.3107 8.57851 93.0028 9.14947C91.6949 9.72042 90.5096 10.5769 89.4469 11.7188C86.7493 14.4104 84.4605 16.8981 82.5804 19.182C80.782 21.3842 78.9427 24.6876 77.0626 29.0921C75.2642 33.4966 74.365 38.5945 74.365 44.3856C74.365 51.237 75.1825 57.6399 76.8174 63.5941C78.534 69.4668 81.2316 74.2792 84.9101 78.0312C88.5886 81.7016 93.3297 83.5368 99.1336 83.5368Z" fill="black"/>
<path d="M149.121 4.25557C150.347 4.25557 152.595 4.174 155.865 4.01087C159.789 3.84774 162.69 3.76618 164.571 3.76618L177.568 4.01087L185.17 4.25557H192.405C199.435 4.25557 203.522 4.174 204.666 4.01087L205.525 3.88852C206.26 3.88852 206.71 4.05165 206.873 4.37792C207.037 4.62261 207.119 4.90809 207.119 5.23434C207.119 5.56061 207.119 5.76452 207.119 5.84609C207.119 5.92765 207.119 6.7433 207.119 8.29304C207.2 9.76121 206.832 11.0663 206.015 12.2082C196.86 25.4217 191.219 33.4966 189.094 36.433C183.208 44.7526 178.222 51.6041 174.135 56.9874L162.486 72.8926C164.775 73.2188 166.451 73.4227 167.513 73.5043C170.047 73.8305 172.99 73.9937 176.342 73.9937L183.331 73.8713C184.721 73.7898 186.846 73.749 189.707 73.749C191.996 73.749 196.247 73.5859 202.459 73.2596L210.061 73.0149C211.042 73.0149 211.655 73.2596 211.901 73.749C212.146 74.2384 212.268 74.8093 212.268 75.4618C212.35 76.1144 212.391 76.563 212.391 76.8077L212.146 85.739V86.4731C212.146 87.2888 212.064 87.7782 211.901 87.9413C211.737 88.1044 211.247 88.2268 210.429 88.3083L207.977 88.553C206.179 88.553 203.931 88.757 201.233 89.1648C200.089 89.3279 197.718 89.4095 194.121 89.4095L184.435 89.2871C182.881 89.2056 180.919 89.1648 178.549 89.1648H148.508C146.709 89.1648 145.606 88.9201 145.197 88.4307C144.788 87.8597 144.584 87.248 144.584 86.5955C144.666 85.8614 144.707 85.372 144.707 85.1273L144.952 80.3558C145.197 77.9904 145.32 75.992 145.32 74.3607C145.32 73.7082 145.606 72.9741 146.178 72.1585C146.75 71.3428 147.568 70.364 148.63 69.2221L150.592 67.0199C152.799 64.0835 155.906 59.9237 159.911 54.5404C163.998 49.0756 166.532 45.4867 167.513 43.7738C168.494 41.9794 170.497 39.1246 173.522 35.2095C176.546 31.2128 178.426 28.6843 179.162 27.624L180.633 25.6664C181.86 23.872 183.331 21.2211 185.048 17.7138L187.255 12.9422C186.764 12.9422 186.396 12.9015 186.151 12.8199L183.699 12.5752L170.701 12.4529C169.23 12.4529 168.086 12.4936 167.268 12.5752L163.222 12.6976C162.077 12.6976 161.342 12.6568 161.015 12.5752C160.279 12.4121 157.377 12.3305 152.309 12.3305H147.159C146.505 12.2489 146.096 12.1266 145.933 11.9635C145.769 11.8003 145.688 11.5964 145.688 11.3517C145.769 11.107 145.81 10.9031 145.81 10.74C145.81 9.84277 145.688 8.25226 145.442 5.96843C145.361 5.15279 145.524 4.66339 145.933 4.50026C146.423 4.25557 146.996 4.17401 147.65 4.25557C148.303 4.25557 148.794 4.25557 149.121 4.25557Z" fill="black"/>
<path d="M275.615 16.0009C275.615 17.6322 275.493 19.1412 275.247 20.5278C275.166 21.7513 274.593 22.363 273.531 22.363C273.204 22.363 272.754 22.2814 272.182 22.1183C271.61 21.9552 271.16 21.8328 270.833 21.7513C269.607 21.5066 266.051 21.3842 260.166 21.3842L255.506 21.2619C254.443 21.1803 252.89 21.1395 250.847 21.1395C249.375 21.1395 248.272 21.1803 247.536 21.2619C245.084 21.425 242.918 21.5066 241.037 21.5066L234.539 21.3842C233.885 21.3842 233.517 21.5474 233.435 21.8736C233.353 22.1183 233.313 22.7708 233.313 23.8312C233.313 25.2993 233.272 26.5636 233.19 27.624C233.026 30.8866 232.945 33.5374 232.945 35.5765V42.7951C232.945 44.5079 232.986 45.813 233.067 46.7102C233.721 46.7917 234.825 46.8325 236.378 46.8325C237.768 46.9141 240.629 46.9549 244.961 46.9549C246.76 46.9549 249.375 46.8733 252.809 46.7102C255.424 46.547 257.141 46.4655 257.958 46.4655C259.103 46.4655 260.247 46.547 261.392 46.7102C262.536 46.7917 263.394 46.8325 263.967 46.8325C265.029 46.8325 265.561 47.3219 265.561 48.3007C265.561 48.6269 265.52 49.1163 265.438 49.7689C265.356 50.3398 265.315 51.1147 265.315 52.0935L265.438 58.5779C265.438 59.312 265.356 59.8421 265.193 60.1684C265.029 60.4131 264.743 60.5354 264.335 60.5354C264.089 60.5354 263.721 60.4947 263.231 60.4131C262.822 60.25 262.454 60.1684 262.127 60.1684C261.392 60.1684 260.002 60.1276 257.958 60.0461C255.997 59.9645 253.299 59.9237 249.866 59.9237C246.187 59.9237 242.999 60.0868 240.302 60.4131C237.604 60.7394 235.969 60.9025 235.397 60.9025C234.498 60.9025 233.966 60.8617 233.803 60.7801C233.394 60.7801 233.149 60.7394 233.067 60.6578V72.8926C233.64 72.8926 234.089 72.8518 234.416 72.7702L237.849 72.6479L252.318 72.5255C255.261 72.5255 257.591 72.5663 259.307 72.6479L267.768 72.7702L272.918 72.6479C273.899 72.6479 274.553 72.8926 274.88 73.3819C275.207 73.7898 275.37 74.4015 275.37 75.2172L275.247 77.6641L275.125 86.2284C275.125 87.5335 274.839 88.3491 274.266 88.6754C273.694 88.9201 272.877 89.0424 271.814 89.0424C270.751 88.9609 269.893 88.9201 269.239 88.9201C265.724 88.9201 262.7 88.8793 260.166 88.7977L247.659 88.6754C246.678 88.6754 241.773 88.7977 232.945 89.0424L228.285 89.1648L227.55 89.2871C227.059 89.2871 226.773 89.1648 226.691 88.9201C226.61 88.5938 226.569 88.0229 226.569 87.2072C226.487 86.31 226.446 84.8011 226.446 82.6804C226.446 82.0278 226.405 81.3345 226.323 80.6004C226.242 79.7848 226.201 78.7245 226.201 77.4194V60.6578C226.201 59.0265 226.242 57.436 226.323 55.8862C226.487 54.3365 226.569 53.1946 226.569 52.4605C226.896 48.7085 227.059 45.1197 227.059 41.6939C227.059 37.4525 226.936 34.1084 226.691 31.6614C226.528 28.8882 226.446 26.3597 226.446 24.0759C226.446 18.9373 226.569 12.9422 226.814 6.09078C226.814 5.03043 227.018 4.33713 227.427 4.01087C227.836 3.60305 228.408 3.39913 229.144 3.39913L230.983 3.52148C231.719 3.52148 232.904 3.60305 234.539 3.76618C236.174 3.84774 238.176 3.88852 240.547 3.88852C243.244 3.88852 246.433 3.68461 250.111 3.27679C254.525 2.95053 257.468 2.7874 258.939 2.7874C262.291 2.7874 265.356 2.90974 268.136 3.15444L272.55 3.27679C273.613 3.27679 274.307 3.52148 274.634 4.01087C274.961 4.50026 275.125 5.39748 275.125 6.70252C275.125 7.4366 275.207 8.70086 275.37 10.4953C275.534 12.616 275.615 14.4512 275.615 16.0009Z" fill="black"/>
<path d="M316.617 2.7874C323.729 2.7874 329.001 4.174 332.435 6.94722C335.868 9.72043 337.666 11.1886 337.83 11.3517C338.647 11.9227 339.056 12.4936 339.056 13.0646C339.056 13.3909 338.892 13.7171 338.565 14.0434C338.32 14.3696 337.83 15.0629 337.094 16.1233C336.358 17.1836 335.786 17.7138 335.377 17.7138C334.969 17.7138 334.437 17.5099 333.783 17.1021L332.925 16.368C326.713 11.8819 321.399 9.63886 316.985 9.63886C311.345 9.63886 307.053 10.9439 304.11 13.554C301.249 16.0825 299.819 19.3043 299.819 23.2194C299.819 26.5636 301.004 29.4184 303.375 31.7838C305.827 34.1492 309.015 36.3922 312.939 38.5129C314.083 39.0023 315.268 39.4509 316.494 39.8587C320.582 41.4084 324.138 43.0805 327.162 44.875C330.268 46.5878 333.048 49.2387 335.5 52.8276C337.952 56.3348 339.179 60.7801 339.179 66.1634C339.179 75.3803 336.031 81.7016 329.737 85.1273C323.443 88.4715 316.413 90.1436 308.647 90.1436C304.151 90.1436 300.064 89.124 296.385 87.0849C292.789 85.0457 290.214 83.2513 288.661 81.7016C287.843 80.9675 287.639 80.2334 288.047 79.4993C288.129 79.3362 288.456 78.6837 289.028 77.5418C289.682 76.3998 290.255 75.8289 290.745 75.8289H290.99C291.235 75.8289 291.44 75.9105 291.603 76.0736C291.849 76.1552 292.094 76.3591 292.339 76.6853C292.666 77.0116 293.034 77.3786 293.443 77.7865C294.505 78.8468 296.59 80.0703 299.696 81.4569C302.802 82.7619 305.377 83.4144 307.421 83.4144C311.753 83.4144 315.881 82.5172 319.805 80.7228C323.729 78.8468 325.691 74.9317 325.691 68.9774C325.691 66.4489 324.546 64.2467 322.257 62.3707C320.05 60.4947 316.576 58.2924 311.835 55.7639L306.563 52.8276C300.84 49.5649 296.344 46.0576 293.075 42.3057C289.887 38.5537 288.293 33.619 288.293 27.5016C288.293 22.4446 289.723 18.0401 292.584 14.2881C295.527 10.5361 299.165 7.6813 303.497 5.72374C307.911 3.76618 312.285 2.7874 316.617 2.7874Z" fill="black"/>
<path d="M404.876 38.9615C408.092 41.7891 410.217 45.1604 411.253 49.0756C412.288 52.9363 412.806 57.2049 412.806 61.8813C412.806 64.3282 412.397 67.0742 411.579 70.1193C410.762 73.1644 409.618 75.992 408.146 78.6021C406.729 81.2122 405.067 83.1426 403.16 84.3932C400.544 86.0789 397.301 87.2752 393.432 87.9821C389.563 88.6346 386.511 88.9609 384.277 88.9609H375.939C375.339 88.9609 374.958 88.8249 374.795 88.553C374.631 88.2812 374.631 87.9821 374.795 87.6558C374.849 87.4927 374.876 87.2752 374.876 87.0033C374.876 86.7858 374.849 86.5139 374.795 86.1877C374.795 85.807 374.795 85.2904 374.795 84.6379C374.795 82.8435 374.767 81.0762 374.713 79.3362L374.549 64.5729L374.631 48.1783C374.631 46.7646 374.604 45.4051 374.549 44.1001C374.495 42.7407 374.44 41.5716 374.386 40.5928L374.222 35.4542C374.277 34.2035 374.359 33.3335 374.468 32.8441C374.577 32.3547 374.795 32.11 375.121 32.11H375.367C375.585 32.11 375.83 32.1644 376.102 32.2732C376.375 32.3275 376.62 32.3547 376.838 32.3547C377.274 32.3547 377.792 32.3275 378.391 32.2732C379.045 32.2188 379.699 32.1916 380.353 32.1916L383.541 32.2732C386.593 32.2732 389.345 32.4091 391.797 32.681C392.015 32.681 392.724 32.7354 393.923 32.8441C395.176 32.9529 396.757 33.5238 398.664 34.557C400.626 35.5901 402.697 37.0583 404.876 38.9615ZM388.282 85.8614C392.043 86.0789 395.476 85.3992 398.582 83.8223C401.579 82.2997 404.059 79.7712 406.021 76.2367C407.983 72.7022 408.964 67.9171 408.964 61.8813C408.964 55.8998 407.983 51.1147 406.021 47.5258C404.114 43.8826 401.688 41.1638 398.746 39.3693C395.748 37.5749 392.342 36.6505 388.528 36.5961L388.201 44.0185C388.037 46.683 387.955 50.3534 387.955 55.0298C387.955 55.4648 388.037 57.8846 388.201 62.2891C388.364 64.1379 388.446 65.878 388.446 67.5093L388.364 78.0312C388.31 79.6625 388.282 82.2725 388.282 85.8614Z" fill="black"/>
<path d="M462.366 87.4111C462.639 87.9549 462.775 88.3083 462.775 88.4715C462.775 88.9065 462.285 89.124 461.304 89.124H455.418C455.2 89.124 454.982 88.9337 454.764 88.553C454.546 88.1724 454.355 87.7918 454.192 87.4111C454.028 87.0305 453.892 86.7042 453.783 86.4323C453.511 85.8886 452.993 84.6379 452.23 82.6804C451.522 80.7228 450.977 79.1731 450.595 78.0312C450.432 77.4874 450.105 76.6989 449.614 75.6658C449.124 74.5782 448.77 73.817 448.552 73.3819C448.334 72.7294 448.116 72.2944 447.898 72.0769C447.734 71.8594 447.462 71.7506 447.08 71.7506C446.699 71.7506 446.208 71.7778 445.609 71.8322C445.064 71.8866 444.464 71.941 443.81 71.9953C443.374 72.1041 442.012 72.1585 439.723 72.1585C438.143 72.1585 436.59 72.2128 435.064 72.3216C434.573 72.376 433.701 72.4032 432.448 72.4032L428.115 72.3216C427.843 72.3216 427.625 72.4303 427.462 72.6479C427.353 72.8654 427.271 73.1372 427.216 73.4635C427.162 73.7354 427.107 73.9529 427.053 74.116L426.562 76.1552C426.399 76.9164 426.181 77.8136 425.908 78.8468C425.69 79.8256 425.5 80.75 425.336 81.62L424.437 85.1273L423.783 87.4927C423.62 88.1452 423.456 88.5802 423.293 88.7977C423.184 88.9609 422.993 89.0424 422.72 89.0424H417.897C417.625 89.0424 417.489 88.9337 417.489 88.7162C417.489 88.6074 417.598 88.2268 417.816 87.5743C418.252 86.5411 418.633 85.5079 418.96 84.4748C420.976 77.7321 422.175 73.3276 422.557 71.2613C423.047 68.5424 424.056 65.0351 425.581 60.7394C426.072 58.8906 426.535 57.2049 426.971 55.6823C427.135 54.9211 427.38 53.9967 427.707 52.9091C428.742 49.1027 429.778 45.5411 430.813 42.2241L432.857 35.6989C433.293 34.0132 433.838 32.2732 434.492 30.4787C434.819 29.6631 435.2 29.4728 435.636 29.9078C435.963 30.1253 436.208 30.5059 436.372 31.0497C436.535 31.5935 436.644 31.9741 436.699 32.1916C436.862 32.8441 438.306 36.1067 441.031 41.9794C442.121 44.2088 443.293 47.118 444.546 50.7069C445.091 52.2838 446.59 55.6823 449.042 60.9025C450.295 63.4582 451.113 65.2254 451.494 66.2042C452.366 68.1074 454.71 72.7294 458.524 80.0703L459.505 82.1094C460.759 84.8826 461.712 86.6499 462.366 87.4111ZM440.949 60.4947C441.331 60.4403 441.658 60.4131 441.93 60.4131C442.203 60.4131 442.421 60.3859 442.584 60.3315C442.748 60.2772 442.83 60.1956 442.83 60.0868C442.83 59.9781 442.748 59.7606 442.584 59.4343C442.312 58.9449 441.685 57.5855 440.704 55.3561C439.723 53.0722 439.042 51.3594 438.661 50.2175C438.116 48.9124 437.68 47.8249 437.353 46.9549C437.08 46.0848 436.862 45.4867 436.699 45.1604C436.59 44.8886 436.453 44.6167 436.29 44.3448C436.181 44.0729 436.072 43.8554 435.963 43.6923C435.854 43.5291 435.745 43.4476 435.636 43.4476C435.472 43.4476 435.282 43.8554 435.064 44.671C434.9 45.4867 434.764 46.112 434.655 46.547C433.674 49.7009 432.966 52.0935 432.53 53.7248C432.312 54.5404 431.985 55.5464 431.549 56.7427C431.167 57.8846 430.895 58.673 430.731 59.1081C430.568 59.6518 430.486 60.0868 430.486 60.4131C430.486 60.7394 430.731 60.9025 431.222 60.9025C432.366 60.9025 434.11 60.8753 436.453 60.8209C438.851 60.7122 440.35 60.6034 440.949 60.4947Z" fill="black"/>
<path d="M502.608 4.37792C504.407 4.37792 507.268 4.29635 511.191 4.13322L517.813 3.88852L531.178 4.01087L537.309 4.13322C538.535 4.21479 540.211 4.25557 542.336 4.25557C543.235 4.25557 543.807 4.37792 544.053 4.62261C544.38 4.8673 544.543 5.27513 544.543 5.84609L544.421 7.92599L544.543 22.2407V29.3368C544.543 29.9893 544.421 30.4379 544.175 30.6826C544.012 30.8458 543.521 30.9273 542.704 30.9273C541.396 30.9273 539.557 30.805 537.186 30.5603C535.96 30.4787 534.734 30.3972 533.508 30.3156C532.281 30.234 531.219 30.1932 530.32 30.1932H517.322C515.851 30.1932 514.134 30.2748 512.172 30.4379L509.597 30.6826C509.516 31.172 509.475 31.9061 509.475 32.8849V36.9224C509.475 37.9011 509.393 39.0431 509.23 40.3481L508.984 41.9386H511.682L516.587 41.8163H525.415C527.459 41.8163 529.87 41.7347 532.649 41.5716C534.775 41.4084 536.164 41.3269 536.818 41.3269C537.799 41.3269 538.453 41.4492 538.78 41.6939C539.107 41.9386 539.271 42.3057 539.271 42.7951C539.271 43.8554 539.066 45.0381 538.658 46.3431C538.576 46.9141 538.412 47.2811 538.167 47.4443C537.922 47.6074 537.513 47.689 536.941 47.689L532.036 47.5666L520.633 47.3219H514.134C512.091 47.3219 510.497 47.3627 509.352 47.4443V59.312C509.352 65.1847 509.23 69.9562 508.984 73.6266C508.821 75.7473 508.739 77.8272 508.739 79.8664L508.862 87.0849C508.862 87.9821 508.657 88.5123 508.249 88.6754C507.84 88.8385 507.104 88.9201 506.042 88.9201H497.581C496.845 88.8385 496.396 88.5938 496.232 88.186C496.069 87.7782 495.987 87.2072 495.987 86.4731C495.987 85.739 495.987 85.1273 495.987 84.6379C495.824 83.3329 495.742 81.4161 495.742 78.8876L495.864 68.6104L496.11 55.7639L496.355 47.9336L496.232 44.3856C495.987 42.5096 495.864 40.1034 495.864 37.1671C495.864 35.2911 495.946 33.1296 496.11 30.6826L496.232 26.4005V15.3892C496.232 14.5735 496.314 13.1054 496.477 10.9847L496.723 6.58017V6.09078C496.723 5.27513 496.845 4.74496 497.091 4.50026C497.418 4.25557 497.867 4.13322 498.439 4.13322C499.012 4.13322 499.625 4.17401 500.279 4.25557C501.014 4.33713 501.791 4.37792 502.608 4.37792Z" fill="black"/>
<path d="M604.116 9.02712C604.116 10.9031 603.952 11.8411 603.625 11.8411C603.135 11.8411 602.563 11.8003 601.909 11.7188C601.336 11.5556 600.601 11.4741 599.701 11.4741H580.083L564.878 11.3517C564.388 11.3517 562.549 11.4741 559.361 11.7188L556.54 11.9635L556.295 15.2668C556.213 16.4903 556.173 18.4071 556.173 21.0172C556.173 22.3222 556.254 24.0351 556.418 26.1558C556.581 28.1133 556.663 29.5407 556.663 30.4379V35.3319C556.663 36.6369 556.704 37.6565 556.786 38.3905C557.521 38.4721 558.625 38.5129 560.096 38.5129H565.001C565.491 38.5129 566.472 38.4313 567.944 38.2682C570.069 38.1051 571.908 38.0235 573.461 38.0235C574.115 38.0235 576.404 38.1458 580.328 38.3905L583.026 38.5129C583.68 38.5129 584.62 38.4721 585.846 38.3905C587.072 38.2274 588.257 38.1458 589.402 38.1458L593.448 38.2682C595.573 38.4313 597.045 38.5129 597.862 38.5129C598.761 38.5129 599.374 38.4721 599.701 38.3905L600.437 38.2682C601.009 38.2682 601.418 38.4721 601.663 38.8799C601.909 39.2062 601.99 39.5325 601.909 39.8587C601.827 40.4297 601.786 41.1637 601.786 42.061C601.786 42.8766 601.745 43.6107 601.663 44.2632C601.582 44.9157 601.459 45.3236 601.295 45.4867C601.132 45.5683 600.642 45.609 599.824 45.609L594.919 45.1197C588.789 44.5487 584.783 44.2632 582.903 44.2632C575.955 44.2632 570.846 44.3856 567.576 44.6303C566.268 44.7934 564.837 44.875 563.284 44.875C561.731 44.875 560.75 44.875 560.342 44.875C558.788 44.875 557.644 44.8342 556.908 44.7526L556.54 46.7102C556.377 48.1783 556.295 49.4834 556.295 50.6253C556.295 51.6041 556.377 52.746 556.54 54.051C556.704 55.3561 556.786 56.498 556.786 57.4768L556.908 72.0361L556.786 78.1535C556.704 78.8876 556.663 79.9071 556.663 81.2122C557.726 81.2938 559.279 81.3345 561.322 81.3345C563.039 81.4161 565.696 81.4569 569.293 81.4569L575.914 81.5792C577.304 81.6608 579.429 81.7016 582.29 81.7016C584.007 81.7016 586.255 81.62 589.034 81.4569L594.184 81.3345C596.146 81.3345 597.78 81.3753 599.088 81.4569C600.396 81.5384 601.377 81.5792 602.031 81.5792C602.685 81.5792 603.053 81.7016 603.135 81.9463C603.298 82.191 603.38 82.7211 603.38 83.5368C603.38 84.1077 603.339 84.7195 603.257 85.372C603.176 85.943 603.135 86.5955 603.135 87.3296C603.135 87.9005 602.93 88.3083 602.522 88.553C602.113 88.7162 601.459 88.7977 600.56 88.7977C599.661 88.7977 598.925 88.757 598.353 88.6754C596.146 88.4307 591.691 88.3083 584.987 88.3083C580.9 88.3083 577.957 88.3491 576.159 88.4307C574.769 88.5123 572.481 88.553 569.293 88.553L557.889 88.4307C556.581 88.3491 555.028 88.3083 553.23 88.3083C552.085 88.3083 551.309 88.186 550.9 87.9413C550.573 87.615 550.41 87.1257 550.41 86.4731L550.532 84.5156C550.614 84.1893 550.655 83.8223 550.655 83.4144C550.655 83.1697 550.614 82.5988 550.532 81.7016C550.45 80.7228 550.41 78.9691 550.41 76.4406C550.41 73.9937 550.328 69.997 550.164 64.4506C549.919 59.8829 549.797 55.4784 549.797 51.237C549.797 49.4426 550.001 44.2632 550.41 35.6989C550.491 33.986 550.573 32.2732 550.655 30.5603C550.737 28.8474 550.777 27.2977 550.777 25.9111C550.777 16.4495 550.655 10.2098 550.41 7.19191C550.164 5.23435 551.35 4.25557 553.965 4.25557C554.619 4.25557 555.682 4.33713 557.153 4.50026C558.461 4.66339 559.442 4.74496 560.096 4.74496L567.821 4.50026C573.38 4.174 577.671 4.01087 580.696 4.01087C584.211 4.01087 589.156 4.09244 595.532 4.25557C597.576 4.33713 599.742 4.37792 602.031 4.37792C603.012 4.37792 603.625 4.62261 603.87 5.112C604.116 5.60139 604.197 6.13157 604.116 6.70252C604.116 7.19191 604.116 7.51817 604.116 7.6813V9.02712Z" fill="black"/>
<path d="M621.863 7.31426C621.618 9.10869 621.414 13.7171 621.25 21.1395C621.25 23.4234 621.087 29.2145 620.76 38.5129C620.433 47.485 620.269 52.9499 620.269 54.9075C620.269 59.6382 620.351 65.6333 620.515 72.8926C620.678 80.0703 620.842 84.3524 621.005 85.739C621.087 86.2284 621.128 86.7994 621.128 87.4519C621.128 88.0229 621.005 88.4307 620.76 88.6754C620.596 88.9201 620.31 89.1648 619.902 89.4095C619.411 89.7357 618.144 89.8989 616.1 89.8989C615.773 89.8989 615.242 89.8989 614.506 89.8989C613.852 89.8989 613.444 89.8173 613.28 89.6542C613.117 89.491 613.035 89.1648 613.035 88.6754L613.158 84.7603L613.403 68.7327L613.648 43.0397C613.648 40.5928 613.812 35.0464 614.139 26.4005C614.22 24.3614 614.343 21.058 614.506 16.4903C614.67 11.8411 614.67 9.10869 614.506 8.29304L614.384 5.72374C614.384 3.60305 615.038 2.5427 616.346 2.5427L620.883 2.66505C621.7 2.66505 622.109 3.236 622.109 4.37792C622.109 4.78574 622.068 5.27513 621.986 5.84609C621.904 6.33548 621.863 6.82487 621.863 7.31426Z" fill="black"/>
<path d="M688.974 85.6167C690.118 87.4111 690.691 88.5938 690.691 89.1648C690.691 89.491 690.486 89.6949 690.078 89.7765C689.669 89.8581 689.301 89.8989 688.974 89.8989C688.729 89.8989 688.524 89.8989 688.361 89.8989L674.505 90.2659C673.851 90.2659 673.32 89.9804 672.911 89.4095C672.584 88.8385 672.094 87.819 671.44 86.3508C671.031 85.1273 670.295 83.496 669.233 81.4569C667.598 78.5205 664.778 73.0149 660.772 64.94L654.519 52.8276L654.887 59.312L655.5 68.6104C655.99 79.5401 656.399 85.5759 656.726 86.7178C656.808 87.0441 656.848 87.4519 656.848 87.9413C656.848 89.4095 656.072 90.1436 654.519 90.1436C654.028 90.1436 653.62 90.1028 653.293 90.0212C651.985 89.8581 648.797 90.0212 643.728 90.5106C640.295 90.8369 638.211 91 637.475 91C636.412 91 635.677 90.7961 635.268 90.3883C634.941 89.9804 634.777 89.2871 634.777 88.3083L634.9 85.4943L634.655 78.3982C634.164 69.9154 633.919 62.5338 633.919 56.2533C633.919 52.9907 634.042 50.7476 634.287 49.5242C634.696 47.485 634.9 41.7347 634.9 32.2732C634.9 22.4038 634.737 14.9406 634.41 9.88356C634.328 9.23104 634.287 8.33382 634.287 7.19191C634.287 5.88687 634.41 4.94887 634.655 4.37792C634.9 3.80696 635.145 3.52148 635.391 3.52148C635.718 3.43991 636.249 3.39913 636.985 3.39913L639.682 3.15444C645.322 2.50192 649.818 2.17566 653.17 2.17566C662.325 2.17566 669.192 4.54105 673.77 9.27182C678.429 13.921 680.759 19.9976 680.759 27.5016C680.759 33.4559 678.838 39.1654 674.996 44.6303C673.361 46.9957 671.481 49.1163 669.355 50.9923L677.938 66.5305C684.233 77.7865 687.911 84.1485 688.974 85.6167ZM653.783 36.5553C655.009 36.5553 656.113 36.3106 657.094 35.8212C659.383 34.7609 660.527 32.5994 660.527 29.3368C660.527 26.9714 660.159 25.2178 659.423 24.0759C658.688 22.934 657.748 22.363 656.603 22.363C655.704 22.363 654.927 22.6893 654.274 23.3418C654.192 23.4234 654.192 23.9943 654.274 25.0547C654.355 26.115 654.396 27.1753 654.396 28.2357C654.396 29.1329 654.355 29.7854 654.274 30.1932C653.947 31.5799 653.783 33.0072 653.783 34.4754L653.66 35.5765L653.783 36.5553Z" fill="black"/>
<path d="M763.387 86.5955C763.796 87.4111 764 87.9413 764 88.186C764 88.8385 763.264 89.1648 761.793 89.1648H752.965C752.638 89.1648 752.311 88.8793 751.984 88.3083C751.657 87.7374 751.371 87.1664 751.125 86.5955C750.88 86.0245 750.676 85.5351 750.512 85.1273C750.103 84.3117 749.327 82.4357 748.182 79.4993C747.12 76.563 746.302 74.2384 745.73 72.5255C745.485 71.7099 744.994 70.5272 744.259 68.9774C743.523 67.3461 742.992 66.2042 742.665 65.5517C742.338 64.5729 742.011 63.9204 741.684 63.5941C741.439 63.2679 741.03 63.1047 740.458 63.1047C739.885 63.1047 739.15 63.1455 738.251 63.2271C737.433 63.3087 736.534 63.3902 735.553 63.4718C734.899 63.6349 732.855 63.7165 729.422 63.7165C727.052 63.7165 724.722 63.7981 722.433 63.9612C721.697 64.0427 720.389 64.0835 718.509 64.0835L712.011 63.9612C711.602 63.9612 711.275 64.1243 711.03 64.4506C710.866 64.7768 710.744 65.1847 710.662 65.674C710.58 66.0819 710.498 66.4081 710.417 66.6528L709.681 69.7115C709.436 70.8534 709.109 72.1993 708.7 73.749C708.373 75.2172 708.087 76.6038 707.842 77.9088L706.493 83.1697L705.512 86.7178C705.267 87.6966 705.021 88.3491 704.776 88.6754C704.613 88.9201 704.327 89.0424 703.918 89.0424H696.684C696.275 89.0424 696.07 88.8793 696.07 88.553C696.07 88.3899 696.234 87.819 696.561 86.8402C697.215 85.2904 697.787 83.7407 698.278 82.191C701.302 72.0769 703.1 65.4701 703.673 62.3707C704.408 58.2924 705.921 53.0315 708.209 46.5878C708.945 43.8146 709.64 41.2861 710.294 39.0023C710.539 37.8604 710.907 36.4738 711.398 34.8425C712.951 29.1329 714.504 23.7904 716.057 18.8149L719.122 9.02712C719.776 6.4986 720.594 3.88852 721.575 1.19688C722.065 -0.0265985 722.637 -0.312075 723.291 0.340447C723.782 0.666708 724.15 1.23766 724.395 2.05331C724.64 2.86896 724.804 3.43992 724.885 3.76618C725.131 4.74496 727.297 9.63886 731.384 18.4479C733.019 21.7921 734.776 26.1558 736.657 31.5391C737.474 33.9045 739.722 39.0023 743.4 46.8325C745.281 50.6661 746.507 53.3169 747.079 54.7851C748.387 57.6399 751.902 64.5729 757.624 75.5842L759.095 78.6429C760.975 82.8027 762.406 85.4536 763.387 86.5955ZM731.261 46.2208C731.834 46.1392 732.324 46.0984 732.733 46.0984C733.142 46.0984 733.468 46.0577 733.714 45.9761C733.959 45.8945 734.082 45.7722 734.082 45.609C734.082 45.4459 733.959 45.1197 733.714 44.6303C733.305 43.8962 732.365 41.8571 730.894 38.5129C729.422 35.0872 728.4 32.5179 727.828 30.805C727.011 28.8474 726.357 27.2161 725.866 25.9111C725.458 24.606 725.131 23.7088 724.885 23.2194C724.722 22.8116 724.517 22.4038 724.272 21.996C724.109 21.5881 723.945 21.2619 723.782 21.0172C723.618 20.7725 723.455 20.6501 723.291 20.6501C723.046 20.6501 722.76 21.2619 722.433 22.4854C722.188 23.7088 721.983 24.6468 721.82 25.2993C720.348 30.0301 719.286 33.619 718.632 36.0659C718.305 37.2894 717.814 38.7984 717.16 40.5928C716.588 42.3057 716.18 43.4884 715.934 44.1409C715.689 44.9565 715.566 45.609 715.566 46.0984C715.566 46.5878 715.934 46.8325 716.67 46.8325C718.387 46.8325 721.002 46.7917 724.517 46.7102C728.114 46.547 730.362 46.3839 731.261 46.2208Z" fill="black"/>
</g>
<defs>
<clipPath id="clip0_6_3">
<rect width="764" height="91" fill="white"/>
</clipPath>
</defs>
</svg>
